<?xml version="1.0" standalone="no"?>
<!DOCTYPE svg PUBLIC "-//W3C//DTD SVG 20010904//EN"
 "http://www.w3.org/TR/2001/REC-SVG-20010904/DTD/svg10.dtd">
<svg version="1.0" xmlns="http://www.w3.org/2000/svg"
 width="757.000000pt" height="757.000000pt" viewBox="0 0 757.000000 757.000000"
 preserveAspectRatio="xMidYMid meet">
<metadata>
Created by potrace 1.11, written by Peter Selinger 2001-2013
</metadata>
<g transform="translate(0.000000,757.000000) scale(0.100000,-0.100000)"
fill="#000000" stroke="none">
<path d="M6978 6673 c-1 -5 -34 -35 -73 -68 -38 -33 -83 -73 -101 -90 -17 -16
-89 -84 -159 -150 -70 -66 -149 -140 -175 -165 -66 -63 -319 -302 -356 -336
-17 -16 -78 -73 -135 -126 -57 -53 -117 -109 -134 -124 -16 -14 -48 -43 -70
-63 -43 -40 -231 -207 -280 -250 -516 -445 -775 -788 -981 -1294 -67 -165 -87
-179 -187 -133 -559 257 -523 253 -880 99 -216 -93 -259 -112 -289 -128 -14
-8 -29 -15 -33 -15 -3 0 -28 46 -55 102 -99 211 -327 685 -348 725 -12 24 -46
67 -76 95 -56 56 -284 270 -320 301 -12 10 -50 46 -86 80 -36 34 -121 114
-190 177 -68 63 -138 129 -155 145 -17 17 -82 77 -145 135 -63 58 -121 112
-130 120 -9 8 -79 74 -155 145 -77 72 -149 139 -161 150 -11 11 -47 44 -80 74
-32 30 -91 84 -129 120 -39 36 -122 114 -185 173 -63 58 -137 127 -165 153
-53 50 -176 147 -181 142 -2 -2 6 -75 21 -187 2 -19 9 -73 16 -120 6 -47 13
-98 15 -115 2 -16 6 -46 9 -65 15 -114 34 -186 72 -270 20 -46 70 -100 297
-325 150 -148 350 -344 445 -435 94 -91 190 -189 213 -218 36 -47 40 -55 30
-77 -7 -14 -16 -25 -22 -25 -8 0 -120 80 -140 100 -3 3 -27 23 -55 45 -46 36
-303 253 -315 265 -3 3 -39 34 -80 70 -41 36 -77 67 -80 70 -9 9 -75 64 -120
100 -24 19 -48 40 -54 45 -18 16 -90 70 -104 79 -10 6 -12 0 -8 -26 3 -18 8
-52 10 -75 3 -22 7 -52 10 -65 3 -12 8 -43 11 -68 3 -25 10 -79 16 -120 5 -41
16 -133 24 -205 20 -181 56 -278 132 -350 15 -15 138 -110 273 -213 135 -102
250 -191 256 -196 6 -6 22 -18 34 -26 12 -8 30 -22 40 -30 10 -8 91 -71 180
-140 151 -116 250 -209 250 -236 0 -6 -8 -18 -18 -27 -16 -14 -33 -5 -242 126
-124 78 -248 156 -275 173 -28 17 -117 73 -198 124 -160 101 -183 106 -154 33
12 -31 96 -222 269 -613 11 -25 26 -58 33 -75 256 -582 401 -899 423 -929 15
-19 81 -80 147 -136 66 -56 144 -123 174 -149 66 -57 66 -56 336 -286 121
-102 231 -196 245 -209 14 -12 68 -57 120 -101 52 -44 97 -83 100 -86 3 -3 81
-70 174 -149 93 -78 181 -153 195 -165 14 -13 64 -56 111 -96 47 -39 112 -95
144 -123 163 -141 202 -166 257 -166 54 0 92 26 320 221 124 107 315 270 425
364 109 93 211 181 225 195 14 14 59 54 100 90 40 36 100 90 132 120 79 73 84
77 231 199 71 58 211 174 311 256 100 83 200 165 223 183 39 32 53 54 102 167
12 28 33 75 47 105 14 30 31 70 39 88 8 17 22 49 31 70 537 1209 560 1262 547
1273 -10 8 -58 -17 -211 -113 -109 -67 -202 -125 -208 -128 -5 -3 -37 -23 -70
-44 -33 -21 -112 -71 -175 -109 -63 -39 -116 -74 -118 -79 -2 -4 -8 -8 -14 -8
-5 0 -24 -10 -40 -22 -30 -21 -31 -21 -44 -3 -8 10 -14 25 -14 32 0 20 116
132 205 198 44 32 82 62 85 65 3 3 52 41 110 85 279 211 589 455 632 498 85
85 116 175 144 422 3 22 9 64 14 93 5 29 9 56 8 60 -2 6 7 72 17 142 3 14 7
48 10 75 3 28 8 68 11 89 l6 40 -38 -31 c-22 -17 -140 -118 -264 -223 -406
-347 -512 -436 -560 -472 -39 -29 -110 -48 -110 -29 0 54 109 170 619 660 330
317 336 324 369 392 17 36 33 78 36 94 3 17 8 39 10 50 2 11 7 56 10 100 4 44
9 95 12 113 2 17 6 47 8 65 3 17 8 59 11 92 4 33 8 71 11 85 2 14 6 50 10 80
3 30 8 58 10 62 3 4 0 9 -5 12 -5 4 -11 3 -13 -1z"/>
</g>
</svg>
