            <svg xmlns="http://www.w3.org/2000/svg" width="119.5px" height="39.4px" viewBox="0 0 119.5 39.4" class="logo-main js-logo-main">
              <style type="text/css">
              	.st0{fill:#E6AA28;}
              	.st1{fill:#2A3235;}
              </style>
              <defs>
              </defs>
              <g>
              	<path class="st0" d="M26.9,32.5c-0.9,0.9-1.8,1.7-2.7,2.6c-1.4,1.3-2.9,2.6-4.3,3.9c-0.5,0.5-1,0.5-1.5,0
              		c-3.6-3.3-7.2-6.5-10.8-9.8c-0.2-0.2-0.4-0.4-0.5-0.7c-1.4-3.3-2.8-6.7-4.2-10c0,0,0.1-0.1,0.1-0.1c1.7,1.1,3.4,2.2,5.1,3.4
              		c0.1-0.1,0.1-0.2,0.2-0.3c-0.2-0.2-0.4-0.5-0.6-0.7c-1.7-1.4-3.5-2.9-5.2-4.2c-0.6-0.5-1-1.2-1.1-2.2C1.2,13,1,11.8,0.8,10.4
              		c2,1.6,3.8,3.5,5.7,5c0.1-0.1,0.1-0.2,0.2-0.4c-0.2-0.2-0.4-0.5-0.6-0.7c-1.7-1.7-3.3-3.4-5-5.2C0.9,8.8,0.6,8.2,0.5,7.7
              		C0.3,6.5,0.2,5.3,0,3.8c0.4,0.3,0.6,0.5,0.8,0.6C4.6,8.2,8.5,12,12.3,15.7c0.2,0.2,0.4,0.4,0.5,0.7c0.8,1.7,1.6,3.5,2.4,5.2
              		c-0.5,0.2-0.9,0.4-1.4,0.7c-0.2,0.1-0.4,0.7-0.3,0.8c0.5,0.9,1,2,1.7,2.6c0.4,0.3,1.1-0.2,1.7-0.4c0.3-0.1,0.6-0.3,0.9-0.5
              		c0.5-0.5,0.9-0.3,1.3,0.1C21.6,27.4,24.2,30,26.9,32.5z"/>
              	<path class="st1" d="M26.9,32.5c-2.6-2.5-5.3-5.1-7.9-7.6c-0.4-0.4-0.8-0.6-1.3-0.1c-0.3,0.2-0.6,0.4-0.9,0.5
              		c-0.6,0.2-1.3,0.7-1.7,0.4c-0.7-0.6-1.2-1.6-1.7-2.6c-0.1-0.1,0.2-0.6,0.3-0.8c0.4-0.3,0.9-0.5,1.4-0.7c1.1-0.5,2.2-1.1,3.3-1.5
              		c0.4-0.2,0.9-0.1,1.3,0c0.9,0.3,1.8,0.8,2.7,1.2c0.4,0.2,0.7,0.1,0.8-0.4c0-0.1,0.1-0.1,0.1-0.2c1.2-3.5,3.2-5.9,5.5-8.1
              		c2.9-2.6,5.6-5.5,8.4-8.2c0.2-0.2,0.4-0.4,0.9-0.8c-0.2,1.4-0.3,2.5-0.4,3.6c-0.1,0.9-0.4,1.5-1,2.1c-1.6,1.6-3.3,3.3-4.9,5
              		c-0.2,0.2-0.3,0.5-0.4,0.8c0.2-0.1,0.5,0,0.7-0.2c1.7-1.5,3.3-3,5.1-4.6c-0.2,1.7-0.4,3.2-0.6,4.7c-0.1,0.5-0.5,1-0.8,1.3
              		c-1.8,1.5-3.6,2.9-5.3,4.4c-0.2,0.2-0.4,0.4-0.6,0.7c0.1,0.1,0.1,0.2,0.2,0.3c1.7-1.1,3.4-2.2,5.1-3.4c0,0,0.1,0.1,0.1,0.1
              		c-1.4,3.3-2.8,6.7-4.2,10c-0.1,0.2-0.1,0.3-0.2,0.4C29.6,30.2,28.2,31.3,26.9,32.5z"/>
              </g>
              <g>
              	<path d="M41.5,18V5.5h1.7v1.7c1.3-1,2.7-1.7,4.2-2v1.9c-0.6,0.1-1.3,0.3-2,0.6c-0.7,0.3-1.2,0.5-1.6,0.8l-0.6,0.3V18H41.5z"/>
              	<path d="M64.6,5.2c1.5,0,2.6,0.5,3.2,1.4c0.6,1,0.9,2.7,0.9,5.1c0,2.4-0.4,4.1-1.2,5.1c-0.8,1-2.2,1.5-4.2,1.5
              		c-0.6,0-1.7-0.1-3.2-0.2L59.6,18V0h1.7v6.1C62.4,5.5,63.5,5.2,64.6,5.2z M63.4,16.6c1.5,0,2.5-0.4,3-1.1c0.5-0.7,0.7-2,0.7-3.8
              		c0-1.8-0.2-3-0.6-3.7c-0.4-0.7-1.1-1.1-2-1.1c-0.9,0-1.8,0.2-2.7,0.6l-0.5,0.2v8.8C62.2,16.6,62.9,16.6,63.4,16.6z"/>
              	<path d="M78.7,5.5h1.7V18h-1.7v-0.9c-1.1,0.8-2.3,1.1-3.4,1.1c-1.6,0-2.6-0.4-3.1-1.3c-0.5-0.9-0.8-2.5-0.8-4.9V5.5h1.7V12
              		c0,1.8,0.1,3,0.4,3.7c0.3,0.6,0.9,0.9,2,0.9c0.5,0,1-0.1,1.5-0.2c0.5-0.2,0.9-0.3,1.2-0.5l0.4-0.2V5.5z"/>
              	<path d="M83.7,18V5.5h1.7v1.7c1.3-1,2.7-1.7,4.2-2v1.9c-0.6,0.1-1.3,0.3-2,0.6C86.9,8,86.4,8.3,86,8.5l-0.6,0.3V18H83.7z"/>
              	<path d="M95.3,6.9c-1.7,0-2.5,0.6-2.5,1.9c0,0.6,0.2,1,0.6,1.2c0.4,0.2,1.2,0.5,2.6,0.8c1.4,0.3,2.3,0.6,2.9,1.1
              		c0.6,0.5,0.8,1.3,0.8,2.6c0,1.3-0.4,2.2-1.1,2.8c-0.8,0.6-1.9,0.9-3.3,0.9c-0.9,0-2.1-0.1-3.3-0.4l-0.7-0.1l0.1-1.6
              		c1.7,0.3,3,0.4,3.9,0.4c0.9,0,1.6-0.2,2-0.5c0.5-0.3,0.7-0.8,0.7-1.6s-0.2-1.2-0.6-1.5c-0.4-0.3-1.3-0.5-2.6-0.7
              		c-1.3-0.2-2.3-0.6-2.9-1C91.3,10.9,91,10,91,8.8c0-1.2,0.4-2.1,1.2-2.7C93,5.5,94,5.2,95.2,5.2c0.9,0,2.1,0.1,3.5,0.4l0.6,0.1
              		l0,1.6C97.6,7,96.2,6.9,95.3,6.9z"/>
              	<path d="M108.2,7.1h-3.6v6c0,1.4,0.1,2.4,0.3,2.8c0.2,0.5,0.6,0.7,1.4,0.7l2-0.2l0.1,1.6c-1,0.2-1.8,0.3-2.3,0.3
              		c-1.2,0-2-0.3-2.5-1c-0.5-0.6-0.7-1.9-0.7-3.6V7.1h-1.6V5.5h1.6V1.6h1.7v3.8h3.6V7.1z"/>
              	<path d="M43.3,38.3h-1.7V25.8h1.7v0.9c1.2-0.8,2.4-1.1,3.5-1.1c1.5,0,2.5,0.5,3.1,1.4c0.5,0.9,0.8,2.5,0.8,4.8v6.6h-1.7v-6.6
              		c0-1.7-0.2-2.9-0.5-3.6c-0.3-0.6-1-1-2-1c-0.5,0-1,0.1-1.5,0.2c-0.5,0.2-1,0.3-1.2,0.5l-0.4,0.2V38.3z"/>
              	<path d="M61.6,36.8l0.7-0.1l0,1.5c-1.7,0.3-3.2,0.4-4.5,0.4c-1.6,0-2.8-0.5-3.5-1.6c-0.7-1-1-2.7-1-4.9c0-4.4,1.6-6.6,4.8-6.6
              		c1.5,0,2.7,0.5,3.4,1.4c0.8,0.9,1.1,2.4,1.1,4.5l-0.1,1.4h-7.5c0,1.4,0.2,2.4,0.7,3.1c0.5,0.7,1.3,1,2.4,1
              		C59.3,36.9,60.4,36.9,61.6,36.8z M61,31.3c0-1.5-0.2-2.6-0.7-3.3c-0.4-0.6-1.2-1-2.2-1c-1,0-1.8,0.3-2.3,1
              		c-0.5,0.7-0.8,1.7-0.8,3.2H61z"/>
              	<path d="M71.2,27.4h-3.6v6c0,1.4,0.1,2.4,0.3,2.8c0.2,0.5,0.6,0.7,1.4,0.7l2-0.2l0.1,1.6c-1,0.2-1.8,0.3-2.3,0.3
              		c-1.2,0-2-0.3-2.5-1c-0.5-0.6-0.7-1.9-0.7-3.6v-6.6h-1.6v-1.6h1.6v-3.8h1.7v3.8h3.6V27.4z"/>
              	<path d="M72.4,25.8h1.7l2.3,10.9h0.4L79.5,26h1.8L84,36.7h0.4l2.3-10.9h1.7l-2.7,12.6h-2.9l-2.4-9.8L78,38.3h-2.9L72.4,25.8z"/>
              	<path d="M90.2,32c0-2.3,0.4-4,1.1-5c0.7-1,2-1.5,3.8-1.5s3,0.5,3.8,1.5c0.7,1,1.1,2.7,1.1,5s-0.4,4-1.1,5c-0.7,1-2,1.6-3.8,1.6
              		c-1.9,0-3.1-0.5-3.8-1.6C90.5,36,90.2,34.3,90.2,32z M91.9,32c0,1.8,0.2,3.1,0.6,3.9c0.4,0.7,1.2,1.1,2.5,1.1s2.1-0.4,2.5-1.1
              		c0.4-0.7,0.6-2,0.6-3.9c0-1.8-0.2-3.1-0.7-3.8c-0.4-0.7-1.3-1-2.5-1c-1.2,0-2,0.3-2.5,1C92.1,28.9,91.9,30.1,91.9,32z"/>
              	<path d="M102.7,38.3V25.8h1.7v1.7c1.3-1,2.7-1.7,4.2-2v1.9c-0.6,0.1-1.3,0.3-2,0.6c-0.7,0.3-1.2,0.5-1.6,0.8l-0.6,0.3v9.2H102.7z"
              		/>
              	<path d="M112.4,38.3h-1.7v-18h1.7v10.7l1.8-0.1l3.3-5.1h1.9l-3.7,5.8l3.9,6.8h-1.9l-3.4-5.8l-1.8,0.1V38.3z"/>
              	<g>
              		<g>
              			<path d="M56.3,14.4c0,0.1-0.1,0.2-0.1,0.3c-0.2,0.4-0.4,0.9-0.6,1.3c-0.2,0.4-0.5,0.7-0.8,1c-0.3,0.3-0.6,0.5-0.9,0.7
              				c-0.1,0.1-0.3,0.1-0.5,0.2c0,0-0.1,0-0.1,0c-0.4-0.4-0.8-0.8-1.2-1.3c-0.1-0.2-0.2-0.3-0.3-0.5c0,0,0-0.1,0-0.1
              				c0.1-0.2,0.2-0.4,0.2-0.6c0,0,0-0.1,0.1-0.1c0.2-0.1,0.4-0.3,0.6-0.4c0.2-0.2,0.4-0.3,0.6-0.5c0.2-0.2,0.4-0.4,0.6-0.6
              				c0.3-0.4,0.6-0.7,0.8-1.1c0,0,0,0,0.1,0c0.2,0,0.3-0.1,0.5-0.2c0,0,0.1,0,0.1,0C55.6,13,56,13.6,56.3,14.4
              				C56.2,14.4,56.3,14.4,56.3,14.4z"/>
              			<path d="M49.3,9.8c0.1,0.2,0.2,0.4,0.3,0.6c0.1,0.1,0.2,0.1,0.3,0.2c0,0,0.1,0.1,0.1,0.1c-0.1,1.1,0.1,2.2,0.3,3.2
              				c0,0,0,0.1,0,0.1c-0.3,0.3-0.4,0.7-0.3,1.1c0,0,0,0,0,0.1c-0.3,0-0.6,0-0.9,0c-0.3,0-0.6-0.1-0.9-0.1c-0.2,0-0.3-0.1-0.3-0.3
              				c-0.2-0.6-0.4-1.2-0.5-1.9c-0.1-0.7-0.1-1.4,0-2c0,0,0-0.1,0.1-0.1c0.2-0.1,0.4-0.3,0.6-0.4c0.1-0.1,0.3-0.2,0.4-0.2
              				C48.7,10.1,49,9.9,49.3,9.8z"/>
              			<path d="M55.1,10c-0.2-0.1-0.4-0.2-0.6-0.1c-0.2,0-0.3,0.1-0.4,0.2c-0.1,0.1-0.1,0-0.1,0c-0.2-0.1-0.4-0.3-0.7-0.4
              				c-0.2-0.1-0.4-0.2-0.7-0.3c-0.1,0-0.2-0.1-0.3-0.1c-0.3-0.1-0.7-0.2-1-0.2c-0.1,0-0.1,0-0.1-0.1c-0.1-0.2-0.2-0.4-0.3-0.6
              				c0,0,0-0.1,0-0.1c0.2-0.6,0.4-1.2,0.7-1.7c0.1-0.2,0.2-0.3,0.3-0.5C51.9,5.9,52,6,52.1,6c0.1,0,0.2,0,0.3,0
              				c0.2,0,0.4,0.1,0.6,0.1c0.3,0.1,0.6,0.2,0.9,0.4c0.2,0.2,0.5,0.3,0.7,0.5c0.2,0.2,0.4,0.4,0.6,0.6c0.1,0.1,0.2,0.2,0.2,0.3
              				c0,0,0,0.1,0,0.1C55.4,8.7,55.3,9.3,55.1,10C55.1,10,55.1,10,55.1,10z"/>
              			<path d="M51.3,9.7c0.2,0.1,0.5,0.1,0.7,0.2c0.1,0,0.2,0.1,0.3,0.1c0.3,0.1,0.5,0.2,0.8,0.4c0.2,0.1,0.3,0.2,0.5,0.3
              				c0.1,0,0.1,0.1,0.1,0.2c-0.1,0.4,0,0.8,0.2,1.1c0.1,0.1,0.1,0.2,0.2,0.3c0,0,0,0.1,0,0.1c-0.2,0.2-0.3,0.5-0.5,0.7
              				c-0.3,0.3-0.5,0.6-0.9,0.9c-0.2,0.2-0.5,0.3-0.7,0.5c0,0-0.1,0.1-0.1,0.1c-0.2-0.5-0.5-0.8-1.1-0.8c-0.1-0.3-0.1-0.5-0.2-0.8
              				c-0.1-0.6-0.2-1.2-0.2-1.9c0-0.1,0-0.2,0-0.3c0-0.1,0-0.1,0.1-0.1c0.4-0.1,0.6-0.5,0.7-0.8C51.2,9.8,51.3,9.8,51.3,9.7
              				C51.3,9.7,51.3,9.7,51.3,9.7C51.3,9.7,51.3,9.7,51.3,9.7z"/>
              			<path d="M51.2,6c-0.4,0.7-0.6,1.3-0.9,2c0,0-0.1,0.1-0.1,0.1c-0.4,0-0.7,0.3-0.9,0.6c0,0.1-0.1,0.2-0.1,0.3
              				c0,0.1-0.1,0.2-0.2,0.2c-0.2,0.1-0.4,0.1-0.6,0.2c-0.3,0.1-0.5,0.3-0.8,0.4c0,0-0.1,0-0.1,0c0.1-0.2,0.1-0.3,0.2-0.5
              				c0.2-0.6,0.5-1.2,0.9-1.7c0.3-0.3,0.5-0.6,0.9-0.9c0.3-0.2,0.6-0.4,1-0.6c0.2-0.1,0.4-0.2,0.6-0.2C51.2,6.1,51.2,6.1,51.2,6z"/>
              			<path d="M48.3,15.8c0.6,0.1,1.2,0.1,1.8,0c0.3,0.4,0.6,0.6,1.1,0.4c0.4,0.6,0.8,1.2,1.3,1.7c-0.3,0-0.6,0.1-0.9,0
              				c-0.1,0-0.2,0-0.3,0c-0.3,0-0.6-0.1-0.9-0.3c-0.3-0.1-0.5-0.2-0.7-0.4c-0.2-0.2-0.4-0.4-0.7-0.6C48.8,16.5,48.6,16.2,48.3,15.8
              				C48.3,15.9,48.3,15.9,48.3,15.8z"/>
              			<path d="M55.9,8.7c0.7,1.5,0.9,3.1,0.6,4.7c-0.2-0.3-0.4-0.7-0.5-1c-0.1-0.2-0.3-0.4-0.4-0.6c0,0,0-0.1,0-0.1
              				c0.1-0.4,0.1-0.8,0-1.2c0,0,0-0.1,0-0.1C55.7,9.9,55.8,9.4,55.9,8.7C55.9,8.8,55.9,8.8,55.9,8.7z"/>
              		</g>
              	</g>
              </g>
              </svg>